<svg width="203" height="50" viewBox="0 0 203 50" fill="none" xmlns="http://www.w3.org/2000/svg">
<path d="M62.0481 14.9843C64.087 14.9843 65.8687 15.3793 67.3933 16.1691C68.9362 16.9406 70.1209 18.061 70.9475 19.5305C71.7925 20.9816 72.2149 22.6807 72.2149 24.6277C72.2149 26.5747 71.7925 28.2646 70.9475 29.6974C70.1209 31.1301 68.9362 32.2322 67.3933 33.0037C65.8687 33.7568 64.087 34.1333 62.0481 34.1333H55.7937V14.9843H62.0481ZM62.0481 31.5709C64.289 31.5709 66.0064 30.9648 67.2004 29.7525C68.3943 28.5402 68.9913 26.8319 68.9913 24.6277C68.9913 22.4051 68.3943 20.6693 67.2004 19.4203C66.0064 18.1712 64.289 17.5467 62.0481 17.5467H58.9346V31.5709H62.0481ZM76.926 16.9406C76.3566 16.9406 75.879 16.7477 75.4932 16.362C75.1075 15.9762 74.9146 15.4987 74.9146 14.9292C74.9146 14.3598 75.1075 13.8822 75.4932 13.4965C75.879 13.1108 76.3566 12.9179 76.926 12.9179C77.477 12.9179 77.9454 13.1108 78.3311 13.4965C78.7169 13.8822 78.9097 14.3598 78.9097 14.9292C78.9097 15.4987 78.7169 15.9762 78.3311 16.362C77.9454 16.7477 77.477 16.9406 76.926 16.9406ZM78.4689 18.9519V34.1333H75.3279V18.9519H78.4689ZM88.7094 18.7039C89.885 18.7039 90.9228 18.9427 91.8228 19.4203C92.7412 19.8795 93.4576 20.4581 93.9719 21.1561V18.9519H97.1404V34.3813C97.1404 35.7773 96.8465 37.0171 96.2588 38.1009C95.671 39.203 94.8168 40.0663 93.6964 40.6908C92.5943 41.3153 91.2718 41.6276 89.7288 41.6276C87.6716 41.6276 85.9633 41.1408 84.6041 40.1673C83.2448 39.2121 82.4733 37.908 82.2897 36.2548H85.4031C85.6419 37.0447 86.147 37.6784 86.9185 38.156C87.7083 38.6519 88.6451 38.8999 89.7288 38.8999C90.9962 38.8999 92.0157 38.5141 92.7871 37.7427C93.577 36.9712 93.9719 35.8507 93.9719 34.3813V31.8464C93.4392 32.5628 92.7137 33.169 91.7953 33.6649C90.8952 34.1425 89.8666 34.3813 88.7094 34.3813C87.3869 34.3813 86.1746 34.0506 85.0725 33.3894C83.9887 32.7098 83.1254 31.773 82.4825 30.579C81.858 29.3667 81.5457 27.9983 81.5457 26.4737C81.5457 24.9491 81.858 23.5991 82.4825 22.4235C83.1254 21.2479 83.9887 20.3387 85.0725 19.6958C86.1746 19.0346 87.3869 18.7039 88.7094 18.7039ZM93.9719 26.5288C93.9719 25.4818 93.7515 24.5726 93.3106 23.8011C92.8882 23.0297 92.3279 22.4419 91.6299 22.0378C90.9319 21.6337 90.1788 21.4316 89.3706 21.4316C88.5624 21.4316 87.8093 21.6337 87.1113 22.0378C86.4133 22.4235 85.8439 23.0021 85.4031 23.7736C84.9806 24.5267 84.7694 25.4267 84.7694 26.4737C84.7694 27.5207 84.9806 28.4391 85.4031 29.229C85.8439 30.0188 86.4133 30.625 87.1113 31.0474C87.8277 31.4515 88.5808 31.6536 89.3706 31.6536C90.1788 31.6536 90.9319 31.4515 91.6299 31.0474C92.3279 30.6433 92.8882 30.0555 93.3106 29.2841C93.7515 28.4942 93.9719 27.5758 93.9719 26.5288ZM102.864 16.9406C102.295 16.9406 101.817 16.7477 101.431 16.362C101.046 15.9762 100.853 15.4987 100.853 14.9292C100.853 14.3598 101.046 13.8822 101.431 13.4965C101.817 13.1108 102.295 12.9179 102.864 12.9179C103.415 12.9179 103.883 13.1108 104.269 13.4965C104.655 13.8822 104.848 14.3598 104.848 14.9292C104.848 15.4987 104.655 15.9762 104.269 16.362C103.883 16.7477 103.415 16.9406 102.864 16.9406ZM104.407 18.9519V34.1333H101.266V18.9519H104.407ZM112.195 21.5143V29.9178C112.195 30.4872 112.324 30.9005 112.581 31.1576C112.857 31.3964 113.316 31.5158 113.959 31.5158H115.887V34.1333H113.408C111.993 34.1333 110.909 33.8027 110.156 33.1414C109.403 32.4802 109.027 31.4056 109.027 29.9178V21.5143H107.236V18.9519H109.027V15.1772H112.195V18.9519H115.887V21.5143H112.195ZM117.735 26.4737C117.735 24.9491 118.048 23.5991 118.672 22.4235C119.315 21.2479 120.178 20.3387 121.262 19.6958C122.364 19.0346 123.576 18.7039 124.899 18.7039C126.093 18.7039 127.131 18.9427 128.012 19.4203C128.912 19.8795 129.629 20.4581 130.161 21.1561V18.9519H133.33V34.1333H130.161V31.874C129.629 32.5904 128.903 33.1873 127.985 33.6649C127.066 34.1425 126.019 34.3813 124.844 34.3813C123.54 34.3813 122.346 34.0506 121.262 33.3894C120.178 32.7098 119.315 31.773 118.672 30.579C118.048 29.3667 117.735 27.9983 117.735 26.4737ZM130.161 26.5288C130.161 25.4818 129.941 24.5726 129.5 23.8011C129.078 23.0297 128.517 22.4419 127.819 22.0378C127.121 21.6337 126.368 21.4316 125.56 21.4316C124.752 21.4316 123.999 21.6337 123.301 22.0378C122.603 22.4235 122.033 23.0021 121.593 23.7736C121.17 24.5267 120.959 25.4267 120.959 26.4737C120.959 27.5207 121.17 28.4391 121.593 29.229C122.033 30.0188 122.603 30.625 123.301 31.0474C124.017 31.4515 124.77 31.6536 125.56 31.6536C126.368 31.6536 127.121 31.4515 127.819 31.0474C128.517 30.6433 129.078 30.0555 129.5 29.2841C129.941 28.4942 130.161 27.5758 130.161 26.5288ZM140.596 13.7445V34.1333H137.455V13.7445H140.596ZM166.067 14.9843L159.73 27.1901V34.1333H156.589V27.1901L150.224 14.9843H153.723L158.159 24.3797L162.595 14.9843H166.067ZM175.145 34.3813C173.712 34.3813 172.417 34.0598 171.26 33.4169C170.103 32.7557 169.193 31.8373 168.532 30.6617C167.871 29.4678 167.54 28.0901 167.54 26.5288C167.54 24.9859 167.88 23.6174 168.56 22.4235C169.239 21.2296 170.167 20.3112 171.342 19.6683C172.518 19.0254 173.831 18.7039 175.282 18.7039C176.734 18.7039 178.047 19.0254 179.222 19.6683C180.398 20.3112 181.326 21.2296 182.005 22.4235C182.685 23.6174 183.025 24.9859 183.025 26.5288C183.025 28.0718 182.676 29.4402 181.978 30.6341C181.28 31.8281 180.325 32.7557 179.112 33.4169C177.918 34.0598 176.596 34.3813 175.145 34.3813ZM175.145 31.6536C175.953 31.6536 176.706 31.4607 177.404 31.075C178.12 30.6892 178.699 30.1106 179.14 29.3392C179.581 28.5677 179.801 27.6309 179.801 26.5288C179.801 25.4267 179.59 24.4991 179.167 23.746C178.745 22.9746 178.185 22.396 177.487 22.0102C176.789 21.6245 176.036 21.4316 175.227 21.4316C174.419 21.4316 173.666 21.6245 172.968 22.0102C172.288 22.396 171.747 22.9746 171.342 23.746C170.938 24.4991 170.736 25.4267 170.736 26.5288C170.736 28.1636 171.15 29.431 171.976 30.3311C172.821 31.2127 173.877 31.6536 175.145 31.6536ZM199.878 18.9519V34.1333H196.737V32.3424C196.241 32.9669 195.589 33.4629 194.781 33.8302C193.991 34.1792 193.146 34.3537 192.246 34.3537C191.052 34.3537 189.978 34.1057 189.023 33.6098C188.086 33.1139 187.342 32.3791 186.791 31.4056C186.258 30.4321 185.992 29.2565 185.992 27.8789V18.9519H189.105V27.4105C189.105 28.7698 189.445 29.8167 190.125 30.5515C190.804 31.2678 191.732 31.626 192.908 31.626C194.083 31.626 195.011 31.2678 195.69 30.5515C196.388 29.8167 196.737 28.7698 196.737 27.4105V18.9519H199.878Z" fill="white"/>
<path opacity="0.6" d="M19.9999 5.00012C22.7614 2.2387 27.2385 2.2387 29.9999 5.00012L44.9999 20.0001C47.7613 22.7615 47.7613 27.2387 44.9999 30.0001L29.9999 45.0001C27.2385 47.7615 22.7614 47.7615 19.9999 45.0001L4.99998 30.0001C2.23856 27.2387 2.23856 22.7615 4.99998 20.0001L19.9999 5.00012Z" fill="url(#paint0_linear_108_39)"/>
<path opacity="0.6" d="M7.32231 14.3935C7.32231 10.4883 10.4881 7.32245 14.3934 7.32245H35.6065C39.5118 7.32245 42.6776 10.4883 42.6776 14.3935V35.6067C42.6776 39.512 39.5118 42.6778 35.6065 42.6778H14.3934C10.4881 42.6778 7.32231 39.512 7.32231 35.6067V14.3935Z" fill="url(#paint1_linear_108_39)"/>
<path d="M13.5529 19.4456C13.5529 16.1912 16.191 13.553 19.4454 13.553H30.6412C33.8956 13.553 36.5338 16.1912 36.5338 19.4456V30.6415C36.5338 33.8958 33.8956 36.534 30.6412 36.534H19.4454C16.191 36.534 13.5529 33.8958 13.5529 30.6415V19.4456Z" fill="white"/>
<path fill-rule="evenodd" clip-rule="evenodd" d="M20.3293 27.106C20.9802 27.106 21.5078 27.6336 21.5078 28.2845C21.5078 30.2371 23.0907 31.82 25.0433 31.82C26.9959 31.82 28.5788 30.2371 28.5788 28.2845C28.5788 27.6336 29.1065 27.106 29.7574 27.106C30.4082 27.106 30.9359 27.6336 30.9359 28.2845C30.9359 31.5388 28.2977 34.177 25.0433 34.177C21.789 34.177 19.1508 31.5388 19.1508 28.2845C19.1508 27.6336 19.6784 27.106 20.3293 27.106Z" fill="#315BAF"/>
<defs>
<linearGradient id="paint0_linear_108_39" x1="12.5" y1="12.5001" x2="37.5" y2="37.5001" gradientUnits="userSpaceOnUse">
<stop stop-color="#EE79FF"/>
<stop offset="1" stop-color="#6D56F8"/>
</linearGradient>
<linearGradient id="paint1_linear_108_39" x1="24.9999" y1="7.32245" x2="24.9999" y2="42.6778" gradientUnits="userSpaceOnUse">
<stop stop-color="#08DEFF"/>
<stop offset="1" stop-color="#2B2EF1"/>
</linearGradient>
</defs>
</svg>
