<svg width="200" height="49" viewBox="0 0 200 49" fill="none" xmlns="http://www.w3.org/2000/svg">
<path d="M60.7517 14.2886C62.7204 14.2886 64.4474 14.6734 65.9329 15.443C67.4362 16.2125 68.5906 17.3132 69.396 18.745C70.2192 20.1588 70.6309 21.8054 70.6309 23.6846C70.6309 25.5638 70.2192 27.2103 69.396 28.6242C68.5906 30.0201 67.4362 31.1029 65.9329 31.8725C64.4474 32.6421 62.7204 33.0269 60.7517 33.0269H54.2013V14.2886H60.7517ZM60.6174 29.8322C62.5861 29.8322 64.1074 29.2953 65.1812 28.2215C66.255 27.1477 66.7919 25.6354 66.7919 23.6846C66.7919 21.7338 66.255 20.2125 65.1812 19.1208C64.1074 18.0112 62.5861 17.4564 60.6174 17.4564H57.9597V29.8322H60.6174ZM75.3502 16.3826C74.6881 16.3826 74.1332 16.1767 73.6858 15.7651C73.2563 15.3356 73.0415 14.8076 73.0415 14.1812C73.0415 13.5548 73.2563 13.0358 73.6858 12.6242C74.1332 12.1946 74.6881 11.9799 75.3502 11.9799C76.0124 11.9799 76.5583 12.1946 76.9878 12.6242C77.4353 13.0358 77.659 13.5548 77.659 14.1812C77.659 14.8076 77.4353 15.3356 76.9878 15.7651C76.5583 16.1767 76.0124 16.3826 75.3502 16.3826ZM77.2026 18.1544V33.0269H73.4442V18.1544H77.2026ZM86.7414 17.9128C87.851 17.9128 88.8264 18.1365 89.6676 18.5839C90.5087 19.0134 91.1709 19.5772 91.6541 20.2752V18.1544H95.4394V33.1342C95.4394 34.5123 95.162 35.7383 94.6072 36.8121C94.0524 37.9038 93.2201 38.7629 92.1105 39.3893C91.0009 40.0336 89.6586 40.3557 88.0837 40.3557C85.9718 40.3557 84.2358 39.8635 82.8756 38.8792C81.5333 37.8949 80.7727 36.5526 80.5937 34.8524H84.3253C84.5222 35.5324 84.9427 36.0694 85.587 36.4631C86.2492 36.8747 87.0456 37.0805 87.9763 37.0805C89.068 37.0805 89.9539 36.7495 90.634 36.0873C91.3141 35.443 91.6541 34.4586 91.6541 33.1342V30.8255C91.1709 31.5235 90.4998 32.1052 89.6407 32.5705C88.7996 33.0358 87.8331 33.2685 86.7414 33.2685C85.4886 33.2685 84.3432 32.9463 83.3052 32.302C82.2671 31.6577 81.4439 30.7539 80.8354 29.5906C80.2448 28.4094 79.9495 27.0582 79.9495 25.5369C79.9495 24.0336 80.2448 22.7002 80.8354 21.5369C81.4439 20.3736 82.2582 19.4788 83.2783 18.8524C84.3163 18.226 85.4707 17.9128 86.7414 17.9128ZM91.6541 25.5906C91.6541 24.6779 91.4752 23.8993 91.1172 23.255C90.7593 22.5929 90.2761 22.0917 89.6676 21.7517C89.0591 21.3937 88.4058 21.2148 87.7078 21.2148C87.0099 21.2148 86.3656 21.3848 85.775 21.7248C85.1844 22.0649 84.7011 22.566 84.3253 23.2282C83.9673 23.8725 83.7884 24.6421 83.7884 25.5369C83.7884 26.4318 83.9673 27.2192 84.3253 27.8993C84.7011 28.5615 85.1844 29.0716 85.775 29.4295C86.3835 29.7875 87.0278 29.9665 87.7078 29.9665C88.4058 29.9665 89.0591 29.7964 89.6676 29.4564C90.2761 29.0984 90.7593 28.5973 91.1172 27.953C91.4752 27.2908 91.6541 26.5034 91.6541 25.5906ZM101.016 16.3826C100.354 16.3826 99.7991 16.1767 99.3517 15.7651C98.9222 15.3356 98.7074 14.8076 98.7074 14.1812C98.7074 13.5548 98.9222 13.0358 99.3517 12.6242C99.7991 12.1946 100.354 11.9799 101.016 11.9799C101.678 11.9799 102.224 12.1946 102.654 12.6242C103.101 13.0358 103.325 13.5548 103.325 14.1812C103.325 14.8076 103.101 15.3356 102.654 15.7651C102.224 16.1767 101.678 16.3826 101.016 16.3826ZM102.868 18.1544V33.0269H99.1101V18.1544H102.868ZM110.958 21.2416V28.4363C110.958 28.9374 111.074 29.3043 111.307 29.5369C111.557 29.7517 111.969 29.8591 112.542 29.8591H114.286V33.0269H111.924C108.756 33.0269 107.172 31.4877 107.172 28.4094V21.2416H105.401V18.1544H107.172V14.4765H110.958V18.1544H114.286V21.2416H110.958ZM116.023 25.5369C116.023 24.0336 116.319 22.7002 116.909 21.5369C117.518 20.3736 118.332 19.4788 119.352 18.8524C120.39 18.226 121.545 17.9128 122.815 17.9128C123.925 17.9128 124.891 18.1365 125.715 18.5839C126.556 19.0313 127.227 19.5951 127.728 20.2752V18.1544H131.513V33.0269H127.728V30.8524C127.245 31.5503 126.574 32.132 125.715 32.5973C124.873 33.0448 123.898 33.2685 122.788 33.2685C121.536 33.2685 120.39 32.9463 119.352 32.302C118.332 31.6577 117.518 30.7539 116.909 29.5906C116.319 28.4094 116.023 27.0582 116.023 25.5369ZM127.728 25.5906C127.728 24.6779 127.549 23.8993 127.191 23.255C126.833 22.5929 126.35 22.0917 125.741 21.7517C125.133 21.3937 124.48 21.2148 123.782 21.2148C123.084 21.2148 122.439 21.3848 121.849 21.7248C121.258 22.0649 120.775 22.566 120.399 23.2282C120.041 23.8725 119.862 24.6421 119.862 25.5369C119.862 26.4318 120.041 27.2192 120.399 27.8993C120.775 28.5615 121.258 29.0716 121.849 29.4295C122.457 29.7875 123.102 29.9665 123.782 29.9665C124.48 29.9665 125.133 29.7964 125.741 29.4564C126.35 29.0984 126.833 28.5973 127.191 27.953C127.549 27.2908 127.728 26.5034 127.728 25.5906ZM138.942 13.1611V33.0269H135.184V13.1611H138.942ZM163.952 14.2886L157.616 26.5034V33.0269H153.858V26.5034L147.495 14.2886H151.737L155.764 22.8524L159.764 14.2886H163.952ZM172.723 33.2685C171.292 33.2685 170.003 32.9553 168.858 32.3289C167.712 31.6846 166.808 30.7808 166.146 29.6175C165.502 28.4541 165.18 27.1119 165.18 25.5906C165.18 24.0694 165.511 22.7271 166.173 21.5638C166.853 20.4005 167.775 19.5056 168.938 18.8792C170.101 18.2349 171.399 17.9128 172.831 17.9128C174.263 17.9128 175.56 18.2349 176.723 18.8792C177.887 19.5056 178.799 20.4005 179.462 21.5638C180.142 22.7271 180.482 24.0694 180.482 25.5906C180.482 27.1119 180.133 28.4541 179.435 29.6175C178.755 30.7808 177.824 31.6846 176.643 32.3289C175.48 32.9553 174.173 33.2685 172.723 33.2685ZM172.723 29.9933C173.403 29.9933 174.039 29.8322 174.629 29.5101C175.238 29.17 175.721 28.6689 176.079 28.0067C176.437 27.3445 176.616 26.5392 176.616 25.5906C176.616 24.1767 176.24 23.094 175.488 22.3423C174.755 21.5727 173.851 21.1879 172.777 21.1879C171.703 21.1879 170.799 21.5727 170.066 22.3423C169.35 23.094 168.992 24.1767 168.992 25.5906C168.992 27.0045 169.341 28.0962 170.039 28.8658C170.755 29.6175 171.65 29.9933 172.723 29.9933ZM197.279 18.1544V33.0269H193.494V31.1477C193.01 31.792 192.375 32.302 191.588 32.6779C190.818 33.0358 189.977 33.2148 189.064 33.2148C187.901 33.2148 186.872 32.9732 185.977 32.4899C185.082 31.9888 184.375 31.264 183.856 30.3154C183.355 29.349 183.104 28.2036 183.104 26.8792V18.1544H186.863V26.3423C186.863 27.5235 187.158 28.4363 187.749 29.0805C188.339 29.7069 189.145 30.0201 190.165 30.0201C191.203 30.0201 192.017 29.7069 192.608 29.0805C193.198 28.4363 193.494 27.5235 193.494 26.3423V18.1544H197.279Z" fill="black"/>
<path opacity="0.6" d="M19.4869 4.87173C22.1775 2.18115 26.5398 2.18115 29.2304 4.87173L43.8455 19.4869C46.5361 22.1775 46.5361 26.5398 43.8455 29.2304L29.2304 43.8456C26.5398 46.5361 22.1775 46.5361 19.4869 43.8456L4.87172 29.2304C2.18113 26.5398 2.18114 22.1775 4.87172 19.4869L19.4869 4.87173Z" fill="url(#paint0_linear_108_31)"/>
<path opacity="0.6" d="M7.13447 14.0242C7.13447 10.2191 10.2191 7.13452 14.0241 7.13452H34.6931C38.4982 7.13452 41.5828 10.2191 41.5828 14.0242V34.6932C41.5828 38.4982 38.4982 41.5828 34.6931 41.5828H14.0241C10.2191 41.5828 7.13447 38.4982 7.13447 34.6932V14.0242Z" fill="url(#paint1_linear_108_31)"/>
<path d="M13.2052 18.9466C13.2052 15.7757 15.7757 13.2052 18.9466 13.2052H29.8552C33.0261 13.2052 35.5966 15.7757 35.5966 18.9466V29.8552C35.5966 33.0261 33.0261 35.5966 29.8552 35.5966H18.9466C15.7757 35.5966 13.2052 33.0261 13.2052 29.8552V18.9466Z" fill="white"/>
<path fill-rule="evenodd" clip-rule="evenodd" d="M19.8078 26.4104C20.442 26.4104 20.9561 26.9245 20.9561 27.5587C20.9561 29.4612 22.4984 31.0035 24.4009 31.0035C26.3034 31.0035 27.8457 29.4612 27.8457 27.5587C27.8457 26.9245 28.3598 26.4104 28.994 26.4104C29.6282 26.4104 30.1423 26.9245 30.1423 27.5587C30.1423 30.7296 27.5718 33.3001 24.4009 33.3001C21.23 33.3001 18.6595 30.7296 18.6595 27.5587C18.6595 26.9245 19.1736 26.4104 19.8078 26.4104Z" fill="#315BAF"/>
<defs>
<linearGradient id="paint0_linear_108_31" x1="12.1793" y1="12.1793" x2="36.538" y2="36.538" gradientUnits="userSpaceOnUse">
<stop stop-color="#EE79FF"/>
<stop offset="1" stop-color="#6D56F8"/>
</linearGradient>
<linearGradient id="paint1_linear_108_31" x1="24.3586" y1="7.13452" x2="24.3586" y2="41.5828" gradientUnits="userSpaceOnUse">
<stop stop-color="#08DEFF"/>
<stop offset="1" stop-color="#2B2EF1"/>
</linearGradient>
</defs>
</svg>
